<svg width="2667" height="1326" viewBox="0 0 2667 1326" fill="none" xmlns="http://www.w3.org/2000/svg">
<path d="M422.533 0.533358C422.267 0.933358 413.467 2.13336 403.333 3.33336C248.4 20.6667 122.8 108.267 52.9333 247.467C28.1333 296.933 11.8667 352.933 3.06666 419.333C0.266664 440.667 -1.06667 518.4 1.2 532C2 536.8 3.6 548.4 4.8 557.867C11.2 610.667 28 667.333 51.3333 715.333C121.6 859.6 254 950.667 413.067 964.133C436.933 966.133 493.333 964.933 514.667 962.133C565.067 955.2 606.267 942.8 648.667 922C680.667 906.267 707.467 888.4 732.933 865.6C741.467 858 744.8 854 748.267 846.933C752.267 838.8 752.667 837.067 752.667 825.333C752.667 814.4 752.133 811.6 749.067 805.067C741.467 788.8 726.133 779.2 709.333 780.4C698.267 781.067 692.667 784 677.867 796.667C629.467 838.4 577.067 862.133 511.867 872.133C486.133 876.133 431.867 876.533 407.333 872.933C341.733 863.2 282.533 838.133 233.733 799.333C170.267 748.8 124.667 676 103.6 591.333C89.6 535.733 87.0667 472.4 96.1333 412.4C108.533 330.133 144.933 254.933 199.333 198.8C229.467 167.733 260.133 145.2 296.667 127.333C344.933 103.6 390.267 92.6667 446.133 91.0667C496.667 89.6 544 97.0667 584.267 112.8C599.467 118.667 624.267 130.933 636.667 138.667C649.2 146.533 673.067 164.4 685.2 175.2C700.667 188.933 713.2 191.2 728.267 183.067C750.933 170.667 757.867 134 742 109.733C736.8 101.867 714.667 83.2 694 69.3334C627.333 24.6667 549.067 1.86669 456.667 0.400025C438.267 0.133358 422.933 0.133358 422.533 0.533358Z" fill="white"/>
<path d="M1096 1.46678C1092.67 2.00012 1082.27 3.46678 1072.67 4.53345C997.467 13.3334 920 43.8668 857.733 89.2001C838.4 103.333 834.267 109.067 833.6 122.8C833.067 130.667 833.6 133.067 836.533 139.333C842.533 151.467 853.6 158.667 868 159.733C878.933 160.4 886 158.533 894.933 152.4C921.6 133.867 937.333 124.267 955.067 115.6C1004.4 91.3334 1057.47 77.0668 1117.33 71.8668C1132.13 70.6668 1140.13 70.6668 1154.4 72.0001C1236.4 79.3334 1310.93 106.667 1370.67 151.2C1387.47 163.733 1419.73 196 1432.4 213.067C1469.87 263.2 1491.6 321.467 1500.93 396C1504 421.333 1504.53 500.933 1501.47 504.533C1499.73 506.533 1478.8 506.667 1217.47 506.667H935.333V537.6C935.467 560 936.133 573.2 937.867 584.667C956 709.2 1032.13 802.4 1146.4 840C1184.67 852.533 1217.87 857.733 1261.33 857.733C1319.47 857.733 1369.2 846.667 1416.67 823.467C1492.13 786.533 1546 725.2 1573.73 644.667C1599.73 569.067 1601.47 423.867 1577.33 329.333C1566.4 286.4 1547.73 244.533 1522.53 206.667C1504.93 180.267 1489.47 161.467 1467.33 139.333C1393.73 65.7334 1294 17.2001 1190.67 4.66678C1180.8 3.46678 1169.47 2.00012 1165.47 1.33345C1156.8 -0.26655 1104.53 -0.133217 1096 1.46678ZM1499.07 572.933C1500.27 574.8 1496.13 598.933 1492 614.133C1469.47 698.8 1404 759.867 1316.53 778C1260 789.733 1197.47 782.533 1148.4 758.667C1111.6 740.8 1076.93 709.467 1056 675.333C1039.33 648.4 1026.4 610.533 1023.2 580.267C1022.27 572 1022.27 572 1260.4 572C1391.33 572 1498.8 572.4 1499.07 572.933Z" fill="white"/>
<path d="M2107.33 1.46671C2105.2 2.00004 2095.33 3.73337 2085.73 5.33337C2013.87 16.6667 1948.27 44.5334 1891.33 87.8667C1869.47 104.533 1820.13 154.933 1802 179.467C1756.67 240.133 1729.6 332.4 1724 444.667C1720.13 524.533 1711.2 825.467 1710.4 910C1710 945.067 1710.13 946.133 1718.53 955.067C1726.13 963.333 1730.13 964.4 1760.27 965.867C1785.47 967.067 1788.27 966.933 1794.13 964.667C1802.13 961.6 1809.73 954.8 1813.47 947.2C1816.27 941.2 1816.27 941.2 1819.33 691.6C1820.93 554.267 1822 441.333 1821.73 440.4C1820.67 437.733 1823.87 388.933 1826.13 372.933C1839.2 278.133 1876.53 207.867 1936.67 164.667C1956.4 150.4 2006.8 126.8 2044.4 114.133C2069.07 105.733 2101.6 98 2126 94.6667C2165.2 89.3334 2172 87.4667 2178.4 80.9334C2183.73 75.4667 2185.2 71.2 2186.13 59.4667C2187.33 44.8 2184.8 26.5334 2180.53 18.6667C2176.67 11.6 2168.13 4.80004 2161.2 3.33337C2159.07 2.80004 2157.07 1.86671 2156.67 1.20004C2155.6 -0.266625 2112.8 -0.133292 2107.33 1.46671Z" fill="white"/>
<path d="M2610 6.40014C2595.87 7.06681 2567.87 10.9335 2549.33 14.6668C2471.87 30.2668 2405.73 62.6668 2349.33 112.667C2335.73 124.667 2297.47 166.133 2284 183.067C2280.13 188.133 2273.07 198.667 2268.27 206.4C2233.47 264.267 2211.87 341.2 2205.47 430C2202.4 472 2196.13 668.533 2190.8 894.533C2189.47 949.6 2189.73 952 2198.4 960.933C2207.2 970 2210.8 970.933 2239.73 972.267C2269.87 973.6 2276.53 972.533 2285.33 964.533C2293.47 957.067 2296.4 949.867 2296.93 934.8C2297.07 927.733 2298.27 832.267 2299.47 722.667C2300.53 613.067 2301.73 522.533 2302 521.6C2302.53 520.4 2319.33 520 2380.27 520C2423.07 519.867 2462 519.333 2466.93 518.8C2485.2 516.4 2499.2 506.267 2507.07 489.6C2510.8 481.733 2511.33 479.333 2511.2 469.333C2511.07 453.467 2507.47 444.533 2496.8 433.867C2491.07 428.133 2486.27 424.8 2480.67 422.533C2472.67 419.333 2472.67 419.333 2388 418.667C2303.33 418 2303.33 418 2303.73 408C2304.53 383.467 2311.07 345.867 2319.33 317.6C2338.67 250.8 2373.33 200.133 2422 167.333C2432.67 160.133 2470.67 141.333 2493.6 131.867C2514.4 123.467 2542.13 114.4 2565.07 108.8C2582.8 104.4 2592.4 102.667 2626.4 98.0001C2650.53 94.6668 2658.93 90.4001 2664.53 78.8001C2666.13 75.2001 2666.67 70.1335 2666.67 55.7335C2666.67 45.6001 2666.13 36.2668 2665.47 34.9335C2664.8 33.7335 2663.2 30.0001 2661.87 26.9335C2656 12.5335 2636.93 4.93347 2610 6.40014Z" fill="white"/>
<path d="M1098.67 116.667C999.2 128.8 917.467 177.067 866.533 253.733C837.867 297.067 819.733 348.533 814.8 400.667C811.867 431.2 810.267 479.867 811.067 511.333C814.267 633.067 843.867 725.867 904.933 804.667C968.8 887.067 1065.87 943.867 1176.93 963.867C1290.13 984.267 1389.2 970.933 1481.33 923.067C1517.07 904.667 1522.93 898.8 1523.73 880.667C1524.27 872.533 1523.73 870.133 1520.8 864.4C1513.87 850.667 1499.6 842.933 1483.73 844.4C1479.47 844.8 1473.73 846.267 1470.93 847.733C1468.27 849.067 1458.53 854.267 1449.33 859.067C1403.47 883.2 1340.93 899.067 1280.27 902.133C1253.07 903.6 1211.6 898.267 1175.33 888.667C1030.27 850.667 938.533 756.667 910.667 617.333C903.467 581.6 902 563.867 902 514.267C902 470.933 902.133 469.067 904.667 467.2C906.8 465.6 946.533 465.333 1188 465.333H1468.67L1468.53 433.733C1468.4 390.533 1463.87 362 1451.2 324C1412 207.067 1310.4 128.933 1180.8 116.133C1161.6 114.267 1116.27 114.533 1098.67 116.667ZM1175.33 190.8C1210.93 194.667 1249.6 208 1278.27 226.267C1319.87 252.667 1352.53 294 1369.07 341.467C1374.4 356.533 1379.87 381.6 1380.4 392.133C1380.67 400.667 1380.67 400.667 1142.67 400.667C904.667 400.667 904.667 400.667 905.067 394C905.867 382.667 910.533 361.333 916.133 344.667C934.933 288.267 972.267 244.133 1024.27 216.8C1068.8 193.467 1119.47 184.667 1175.33 190.8Z" fill="white"/>
<path d="M1591.73 1062.13C1580.93 1065.47 1574.4 1075.6 1572.4 1092C1571.6 1098.67 1571.6 1098.67 1581.87 1098.67C1592 1098.67 1592 1098.67 1592 1094.8C1592 1090.13 1597.33 1085.33 1602.53 1085.33C1604.4 1085.33 1611.6 1088.13 1618.27 1091.6C1628.8 1096.8 1631.87 1097.73 1638.53 1097.73C1654.4 1097.73 1664 1087.47 1666 1068.27C1666.93 1060 1666.93 1060 1656.8 1060C1647.07 1060 1646.67 1060.13 1646.67 1063.2C1646.67 1067.2 1641.87 1073.33 1638.67 1073.33C1637.33 1073.33 1632.13 1071.2 1627.2 1068.67C1617.33 1063.47 1606.67 1060 1601.47 1060.13C1599.6 1060.13 1595.2 1061.07 1591.73 1062.13Z" fill="white"/>
<path d="M1188 1070.93C1188 1071.6 1188 1116 1188 1169.6C1188 1267.33 1188 1267.33 1204.27 1267.73C1220.67 1268.13 1220.67 1268.13 1220.4 1169.2C1220.13 1070.27 1220.13 1070.27 1204 1070.13C1195.2 1070.13 1188 1070.4 1188 1070.93Z" fill="white"/>
<path d="M1088.8 1117.47C1072.67 1119.87 1054.93 1130.8 1044.53 1144.4C1028.53 1165.6 1024 1193.07 1032.67 1217.6C1037.07 1230.4 1041.87 1238.13 1051.47 1247.47C1096.67 1292.13 1170.67 1257.6 1170.67 1192C1170.67 1146.13 1132 1110.93 1088.8 1117.47ZM1114.13 1153.33C1126.67 1158.8 1136 1173.2 1137.07 1188.8C1138.27 1206.8 1130.4 1222 1115.87 1230C1106.53 1235.2 1093.2 1235.6 1084.4 1230.93C1060 1218.13 1054 1183.6 1072.67 1162.93C1084.27 1150.13 1098.93 1146.67 1114.13 1153.33Z" fill="white"/>
<path d="M1241.2 1117.33C1241.2 1117.73 1241.2 1137.47 1241.33 1161.33C1241.47 1209.87 1242 1213.87 1250.4 1230C1253.33 1235.47 1258.67 1242.67 1263.33 1247.33C1301.07 1285.07 1362.13 1269.07 1379.6 1216.67C1383.2 1206 1383.2 1206 1383.2 1161.47C1383.33 1116.93 1383.33 1116.93 1366.8 1116.93C1350.4 1116.93 1350.4 1116.93 1350.53 1154.8C1350.8 1203.2 1349.33 1211.47 1337.73 1223.33C1319.73 1241.87 1291.73 1236.8 1278.93 1212.67C1275.33 1206 1275.33 1206 1274.67 1161.47C1274 1116.93 1274 1116.93 1257.6 1116.8C1248.67 1116.8 1241.33 1116.93 1241.2 1117.33Z" fill="white"/>
<path d="M1608.4 1117.47C1581.87 1122 1561.47 1140.13 1551.73 1168C1548 1178.4 1547.2 1198.27 1549.87 1209.6C1556.8 1239.2 1579.87 1261.73 1608.27 1266.8C1656.67 1275.47 1699.6 1227.07 1688.8 1176C1680.67 1137.6 1644.53 1111.2 1608.4 1117.47ZM1634.27 1153.47C1641.2 1156.8 1650 1166.27 1653.73 1174.4C1658 1184 1657.73 1200.8 1653.2 1210.8C1649.07 1219.47 1642.27 1226.8 1634.27 1230.93C1630 1233.2 1626.4 1233.87 1619.33 1234C1611.33 1234 1608.93 1233.47 1602.67 1229.87C1583.6 1219.07 1575.87 1193.87 1585.6 1173.33C1595.07 1153.07 1615.6 1144.67 1634.27 1153.47Z" fill="white"/>
<path d="M933.867 1119.73C910.267 1126.8 896 1143.2 896 1163.33C896.134 1186.27 908.934 1197.07 952 1210.13C978.534 1218.13 982.934 1220.27 982.4 1225.07C981.6 1232.27 965.334 1238.53 951.467 1236.8C937.6 1235.2 926.8 1226 926.667 1215.6C926.667 1212 926.667 1212 910.667 1212C894.667 1212 894.667 1212 895.467 1217.6C899.867 1249.47 922.8 1268 957.2 1268C988.667 1267.87 1013.73 1249.33 1015.73 1224.67C1016.27 1217.73 1015.87 1215.07 1013.47 1210.13C1007.47 1197.87 996.934 1191.73 964 1181.33C951.867 1177.6 939.467 1172.93 936.4 1171.2C926.667 1165.6 927.334 1157.87 937.867 1151.87C942.534 1149.2 945.2 1148.67 955.334 1148.67C974.8 1148.67 982.667 1154.53 983.734 1169.6C984.267 1177.33 984.267 1177.33 1000.4 1177.33C1016.4 1177.33 1016.4 1177.33 1015.47 1168.8C1013.07 1145.07 1001.6 1128.93 981.734 1121.2C970.934 1117.07 945.6 1116.27 933.867 1119.73Z" fill="white"/>
<path d="M1893.47 1119.47C1870.8 1125.6 1853.33 1144.27 1853.33 1162.53C1853.33 1184.67 1869.2 1198.13 1908.93 1209.87C1939.47 1218.8 1943.6 1221.2 1940.13 1227.87C1935.47 1236.53 1909.2 1240 1897.47 1233.33C1890.27 1229.2 1886.53 1224.4 1885.47 1217.73C1884.67 1212.67 1884.67 1212.67 1868.93 1212.27C1851.2 1211.87 1852 1211.07 1854.8 1224.27C1861.73 1256.67 1894.13 1274.13 1932.4 1266C1949.2 1262.53 1962.13 1253.33 1969.47 1239.73C1973.2 1232.67 1974 1230 1974 1222.67C1974 1210.8 1969.47 1203.07 1958.4 1196C1949.2 1190 1942 1187.07 1919.6 1180.53C1892.4 1172.53 1884.13 1166.53 1889.07 1158.13C1892.27 1152.67 1900 1149.07 1910.4 1148.27C1930.27 1146.93 1942.67 1156 1942.67 1172C1942.67 1177.33 1942.67 1177.33 1957.87 1177.33C1966.27 1177.33 1973.47 1176.93 1973.73 1176.27C1974 1175.73 1973.87 1170.93 1973.2 1165.6C1970.67 1141.87 1956.27 1125.47 1932.93 1119.2C1924 1116.8 1902.8 1116.93 1893.47 1119.47Z" fill="white"/>
<path d="M1450.8 1120.8C1426.8 1127.2 1406 1148.8 1399.47 1174.13C1398.27 1178.67 1397.33 1187.6 1397.33 1194C1397.33 1224.4 1412.93 1250 1439.07 1262.53C1445.73 1265.87 1450.67 1269.07 1450.67 1270.13C1450.67 1271.2 1449.2 1275.07 1447.33 1278.67C1445.47 1282.27 1444 1285.73 1444 1286.4C1444 1287.07 1446.93 1287.47 1450.53 1287.47C1458.93 1287.33 1462.67 1290.4 1462.67 1297.33C1462.67 1306.67 1454.13 1313.33 1442.13 1313.33C1438.8 1313.33 1435.87 1313.73 1435.6 1314.27C1435.33 1314.93 1435.33 1317.6 1435.6 1320.27C1436.27 1325.33 1436.27 1325.33 1447.87 1325.33C1458 1325.33 1460.53 1324.8 1467.47 1321.47C1480.67 1315.07 1485.33 1308.27 1485.33 1295.73C1485.33 1286.27 1482.13 1280.4 1475.07 1276.93C1469.47 1274.27 1467.6 1271.07 1471.07 1270.13C1471.87 1269.87 1476.53 1268.93 1481.33 1268C1498.93 1264.8 1516.8 1252.67 1526.67 1237.33C1531.47 1230 1539.07 1212 1538 1210.93C1537.6 1210.53 1529.73 1210.27 1520.53 1210.4C1503.6 1210.53 1503.6 1210.53 1499.87 1217.07C1492.4 1230.13 1480.93 1236.67 1466.8 1235.73C1456.4 1235.07 1449.87 1232.27 1442.8 1225.2C1433.87 1216.27 1431.33 1209.47 1431.33 1194C1431.33 1182.13 1431.73 1180 1434.93 1174C1445.07 1154.93 1464.8 1147.07 1482.13 1155.2C1490 1158.8 1497.73 1166 1501.07 1172.8C1503.33 1177.6 1503.33 1177.6 1520.67 1177.73C1540.53 1177.87 1539.47 1178.67 1534 1165.07C1520.13 1130.93 1484.27 1111.73 1450.8 1120.8Z" fill="white"/>
<path d="M1755.47 1120.8C1733.33 1126.13 1714.13 1144 1705.33 1167.33C1701.6 1177.33 1700.13 1199.33 1702.67 1210.53C1706.93 1230.67 1722.4 1251.33 1739.73 1260.4C1760.13 1270.93 1780.4 1271.2 1800.93 1261.33C1815.07 1254.4 1825.6 1244 1833.2 1229.6C1836.13 1223.73 1838.67 1218.27 1838.67 1217.47C1838.67 1216.53 1833.07 1216 1821.47 1216C1804.4 1216 1804.4 1216 1800.93 1221.07C1799.07 1224 1794.8 1228.13 1791.33 1230.4C1772.4 1242.93 1748.8 1235.87 1737.87 1214.4C1732.13 1203.2 1728 1204.13 1788.4 1203.73C1842 1203.33 1842 1203.33 1841.6 1191.73C1840.27 1144.27 1798.93 1110.27 1755.47 1120.8ZM1783.33 1152.8C1790.4 1155.2 1803.6 1166.8 1802 1169.2C1800.93 1171.07 1741.87 1171.2 1740.8 1169.47C1739.73 1167.73 1746.27 1160.27 1752.13 1156.67C1761.73 1150.53 1772.53 1149.2 1783.33 1152.8Z" fill="white"/>
</svg>
